<svg width="80" height="80" viewBox="0 0 80 80" fill="none" xmlns="http://www.w3.org/2000/svg">
<path d="M27.3255 12.9781C27.3255 11.6521 26.2515 10.5781 24.9255 10.5781H15.6715C14.3455 10.5781 13.2715 11.6521 13.2715 12.9781V15.0621H27.3255V12.9781Z" fill="#8595AA"/>
<path d="M40.0008 30.8638C32.9528 30.8638 27.2168 36.5998 27.2168 43.6498C27.2168 50.6998 32.9508 56.4318 40.0008 56.4318C47.0508 56.4318 52.7848 50.6978 52.7848 43.6498C52.7848 36.6018 47.0508 30.8638 40.0008 30.8638ZM40.0008 50.0478C36.4728 50.0478 33.6028 47.1758 33.6028 43.6478C33.6028 42.7978 33.7768 41.9918 34.0788 41.2498C33.4068 40.7838 32.9368 40.0438 32.9368 39.1658C32.9368 37.7418 34.0948 36.5818 35.5188 36.5818C36.3968 36.5818 37.1368 37.0498 37.6028 37.7238C38.3448 37.4218 39.1528 37.2478 40.0008 37.2478C43.5288 37.2478 46.4008 40.1198 46.4008 43.6478C46.4008 47.1758 43.5308 50.0478 40.0008 50.0478Z" fill="#333D4B"/>
<path d="M67.3996 15.062H61.3096L62.1516 20.874C62.4096 22.658 63.4876 24.058 64.8396 24.36L70.7136 25.678C71.2096 25.79 71.5616 26.23 71.5616 26.738C71.5616 27.246 71.2096 27.688 70.7136 27.798L64.8396 29.114C63.4896 29.416 62.4096 30.818 62.1516 32.598L61.0936 39.918C61.0176 40.452 60.5576 40.848 60.0196 40.848C59.4816 40.848 59.0216 40.452 58.9456 39.916L57.8896 32.598C57.6316 30.816 56.5516 29.416 55.2016 29.114L49.3276 27.798C48.8316 27.686 48.4796 27.246 48.4796 26.738C48.4796 26.23 48.8316 25.788 49.3276 25.678L55.2016 24.36C56.5536 24.058 57.6316 22.656 57.8896 20.876L58.7296 15.062H12.5996C8.18161 15.062 4.59961 18.644 4.59961 23.062V63.332C4.59961 67.732 8.19961 71.332 12.5996 71.332H67.3996C71.8176 71.332 75.3996 67.75 75.3996 63.332V23.062C75.3996 18.644 71.8176 15.062 67.3996 15.062ZM39.9996 59.43C31.2956 59.43 24.2156 52.35 24.2156 43.648C24.2156 34.946 31.2956 27.862 39.9996 27.862C48.7036 27.862 55.7836 34.944 55.7836 43.648C55.7836 52.352 48.7036 59.43 39.9996 59.43Z" fill="#4E5968"/>
<path d="M39.9996 37.2461C39.1516 37.2461 38.3436 37.4201 37.6016 37.7221C37.8916 38.1401 38.0996 38.6181 38.0996 39.1641C38.0996 40.5881 36.9416 41.7461 35.5176 41.7461C34.9716 41.7461 34.4936 41.5381 34.0756 41.2481C33.7736 41.9901 33.5996 42.7981 33.5996 43.6461C33.5996 47.1741 36.4696 50.0461 39.9976 50.0461C43.5256 50.0461 46.3976 47.1741 46.3976 43.6461C46.3976 40.1181 43.5296 37.2461 39.9996 37.2461Z" fill="#4E5968"/>
<path d="M38.0995 39.1641C38.0995 38.6181 37.8915 38.1401 37.6015 37.7221C37.1355 37.0501 36.3955 36.5801 35.5175 36.5801C34.0935 36.5801 32.9355 37.7381 32.9355 39.1641C32.9355 40.0421 33.4055 40.7821 34.0775 41.2481C34.4955 41.5381 34.9735 41.7461 35.5195 41.7461C36.9435 41.7461 38.1015 40.5881 38.1015 39.1641H38.0995Z" fill="white"/>
<path d="M40.0008 27.8638C31.2968 27.8638 24.2168 34.9458 24.2168 43.6498C24.2168 52.3538 31.2968 59.4318 40.0008 59.4318C48.7048 59.4318 55.7848 52.3518 55.7848 43.6498C55.7848 34.9478 48.7048 27.8638 40.0008 27.8638ZM40.0008 56.4298C32.9528 56.4298 27.2168 50.6958 27.2168 43.6478C27.2168 36.5998 32.9508 30.8618 40.0008 30.8618C47.0508 30.8618 52.7848 36.5978 52.7848 43.6478C52.7848 50.6978 47.0508 56.4298 40.0008 56.4298Z" fill="#D0D6DE"/>
<path d="M71.5605 26.7401C71.5605 27.2401 71.2005 27.6801 70.7205 27.8001L64.8405 29.1201C63.4805 29.4201 62.4005 30.8201 62.1605 32.6001L61.1005 39.9201C61.0205 40.4601 60.5605 40.8601 60.0205 40.8601C59.4805 40.8601 59.0205 40.4601 58.9405 39.9201L57.8805 32.6001C57.6205 30.8201 56.5405 29.4201 55.2005 29.1201L49.3205 27.8001C48.8405 27.6801 48.4805 27.2401 48.4805 26.7401C48.4805 26.2401 48.8405 25.8001 49.3205 25.6801L55.2005 24.3601C56.5605 24.0601 57.6205 22.6601 57.8805 20.8801L58.7205 15.0601L58.9405 13.5601C59.0205 13.0201 59.4805 12.6201 60.0205 12.6201C60.5605 12.6201 61.0205 13.0201 61.1005 13.5601L61.3005 15.0601L62.1605 20.8801C62.4005 22.6601 63.4805 24.0601 64.8405 24.3601L70.7205 25.6801C71.2005 25.8001 71.5605 26.2401 71.5605 26.7401Z" fill="#FFE63B"/>
</svg>
