<svg width="100" height="101" viewBox="0 0 100 101" fill="none" xmlns="http://www.w3.org/2000/svg">
<g clip-path="url(#clip0_1208_6172)">
<path d="M71.25 9.63477H28.75C17.7043 9.63477 8.75 18.5891 8.75 29.6348V72.1348C8.75 83.1805 17.7043 92.1348 28.75 92.1348H71.25C82.2957 92.1348 91.25 83.1805 91.25 72.1348V29.6348C91.25 18.5891 82.2957 9.63477 71.25 9.63477Z" fill="#008BBD"/>
<path d="M45.2581 67.5996C44.1056 67.5996 42.9556 67.1621 42.0756 66.2821L27.1306 51.3371C25.3731 49.5796 25.3731 46.7296 27.1306 44.9721C28.8881 43.2171 31.7381 43.2171 33.4956 44.9721L45.2581 56.7371L66.5056 35.4896C68.2656 33.7346 71.1156 33.7346 72.8706 35.4896C74.6281 37.2471 74.6281 40.0971 72.8706 41.8546L48.4406 66.2821C47.5606 67.1596 46.4106 67.5996 45.2581 67.5996Z" fill="white"/>
</g>
<defs>
<clipPath id="clip0_1208_6172">
<rect width="100" height="100" fill="white" transform="translate(0 0.884766)"/>
</clipPath>
</defs>
</svg>
