<svg width="80" height="80" viewBox="0 0 80 80" fill="none" xmlns="http://www.w3.org/2000/svg">
<g clip-path="url(#clip0_1205_3911)">
<path d="M21.466 71.0261C30.0076 71.0261 36.932 58.4785 36.932 43.0001C36.932 27.5218 30.0076 14.9741 21.466 14.9741C12.9244 14.9741 6 27.5218 6 43.0001C6 58.4785 12.9244 71.0261 21.466 71.0261Z" fill="white"/>
<path d="M58.5344 71.0261C67.076 71.0261 74.0004 58.4785 74.0004 43.0001C74.0004 27.5218 67.076 14.9741 58.5344 14.9741C49.9927 14.9741 43.0684 27.5218 43.0684 43.0001C43.0684 58.4785 49.9927 71.0261 58.5344 71.0261Z" fill="white"/>
<path d="M17.5015 50.814C21.8171 50.814 25.3155 47.3156 25.3155 43C25.3155 38.6845 21.8171 35.186 17.5015 35.186C13.1859 35.186 9.6875 38.6845 9.6875 43C9.6875 47.3156 13.1859 50.814 17.5015 50.814Z" fill="#191F28"/>
<path d="M55.4077 50.814C59.7233 50.814 63.2217 47.3156 63.2217 43C63.2217 38.6845 59.7233 35.186 55.4077 35.186C51.0922 35.186 47.5938 38.6845 47.5938 43C47.5938 47.3156 51.0922 50.814 55.4077 50.814Z" fill="#191F28"/>
<path d="M14.3075 42.1281C15.3391 42.1281 16.1755 41.2918 16.1755 40.2601C16.1755 39.2284 15.3391 38.3921 14.3075 38.3921C13.2758 38.3921 12.4395 39.2284 12.4395 40.2601C12.4395 41.2918 13.2758 42.1281 14.3075 42.1281Z" fill="white"/>
<path d="M52.4207 42.1281C53.4524 42.1281 54.2887 41.2918 54.2887 40.2601C54.2887 39.2284 53.4524 38.3921 52.4207 38.3921C51.3891 38.3921 50.5527 39.2284 50.5527 40.2601C50.5527 41.2918 51.3891 42.1281 52.4207 42.1281Z" fill="white"/>
</g>
<defs>
<clipPath id="clip0_1205_3911">
<rect width="80" height="80" fill="white"/>
</clipPath>
</defs>
</svg>
