<svg width="294" height="533" viewBox="0 0 294 533" fill="none" xmlns="http://www.w3.org/2000/svg">
<path d="M72.7411 12.798H75.1351V15.498H72.7411V12.798ZM79.7431 2.934H82.1551V19.602H79.7431V2.934ZM81.3091 9.702H84.2431V11.682H81.3091V9.702ZM68.9971 16.83L68.7091 14.904C71.5891 14.904 75.5491 14.886 78.9151 14.418L79.0951 16.146C75.5851 16.83 71.8051 16.83 68.9971 16.83ZM69.0151 4.77H78.8251V6.642H69.0151V4.77ZM73.9471 7.308C76.3231 7.308 78.0151 8.568 78.0151 10.422C78.0151 12.294 76.3231 13.554 73.9471 13.554C71.5531 13.554 69.8791 12.294 69.8791 10.422C69.8791 8.568 71.5531 7.308 73.9471 7.308ZM73.9471 9.108C72.8491 9.108 72.1471 9.576 72.1471 10.422C72.1471 11.286 72.8491 11.754 73.9471 11.754C75.0271 11.754 75.7471 11.286 75.7471 10.422C75.7471 9.576 75.0271 9.108 73.9471 9.108ZM72.7411 3.024H75.1351V6.174H72.7411V3.024ZM93.5837 5.544H97.7777V7.452H93.5837V5.544ZM93.5837 9.126H97.8497V11.034H93.5837V9.126ZM86.2217 4.266H94.1057V12.42H86.2217V4.266ZM91.7477 6.156H88.5797V10.548H91.7477V6.156ZM97.0937 2.952H99.4877V15.084H97.0937V2.952ZM88.4537 17.406H99.8477V19.314H88.4537V17.406ZM88.4537 13.932H90.8657V18.396H88.4537V13.932ZM108.846 9.072H111.582V10.998H108.846V9.072ZM114.228 2.934H116.514V19.602H114.228V2.934ZM110.826 3.186H113.076V18.846H110.826V3.186ZM105.93 4.104C108.144 4.104 109.566 6.39 109.566 10.152C109.566 13.932 108.144 16.218 105.93 16.218C103.734 16.218 102.33 13.932 102.33 10.152C102.33 6.39 103.734 4.104 105.93 4.104ZM105.93 6.354C105.03 6.354 104.508 7.614 104.508 10.152C104.508 12.708 105.03 13.95 105.93 13.95C106.866 13.95 107.388 12.708 107.388 10.152C107.388 7.614 106.866 6.354 105.93 6.354ZM122.81 15.732H137.894V17.676H122.81V15.732ZM129.128 12.168H131.522V16.2H129.128V12.168ZM124.394 3.996H126.77V6.552H133.88V3.996H136.256V12.672H124.394V3.996ZM126.77 8.424V10.764H133.88V8.424H126.77ZM150.871 2.916H153.283V19.638H150.871V2.916ZM144.301 4.086C146.821 4.086 148.675 6.39 148.675 10.026C148.675 13.698 146.821 16.002 144.301 16.002C141.781 16.002 139.927 13.698 139.927 10.026C139.927 6.39 141.781 4.086 144.301 4.086ZM144.301 6.264C143.059 6.264 142.213 7.578 142.213 10.026C142.213 12.51 143.059 13.842 144.301 13.842C145.543 13.842 146.371 12.51 146.371 10.026C146.371 7.578 145.543 6.264 144.301 6.264ZM157.961 7.434H169.517V9.324H157.961V7.434ZM156.089 11.052H171.191V12.96H156.089V11.052ZM157.961 3.528H160.337V8.37H157.961V3.528ZM157.799 17.334H169.607V19.242H157.799V17.334ZM157.799 14.292H160.193V17.838H157.799V14.292ZM178.459 10.368H190.177V12.276H178.459V10.368ZM176.713 15.768H191.797V17.73H176.713V15.768ZM183.031 11.232H185.425V16.398H183.031V11.232ZM178.459 4.068H190.051V5.994H180.853V11.196H178.459V4.068ZM202.758 6.588H205.818V8.496H202.758V6.588ZM202.722 9.918H205.764V11.826H202.722V9.918ZM193.398 4.428H202.542V6.318H193.398V4.428ZM198.078 6.894C200.364 6.894 201.984 8.154 201.984 10.008C201.984 11.862 200.364 13.122 198.078 13.122C195.792 13.122 194.172 11.862 194.172 10.008C194.172 8.154 195.792 6.894 198.078 6.894ZM198.078 8.676C197.07 8.676 196.404 9.126 196.404 10.008C196.404 10.89 197.07 11.34 198.078 11.34C199.068 11.34 199.77 10.89 199.77 10.008C199.77 9.126 199.068 8.676 198.078 8.676ZM196.89 2.79H199.284V5.742H196.89V2.79ZM204.9 2.934H207.294V13.554H204.9V2.934ZM201.66 13.752C205.17 13.752 207.366 14.85 207.366 16.686C207.366 18.522 205.17 19.602 201.66 19.602C198.132 19.602 195.954 18.522 195.954 16.686C195.954 14.85 198.132 13.752 201.66 13.752ZM201.66 15.588C199.608 15.588 198.474 15.912 198.474 16.686C198.474 17.442 199.608 17.802 201.66 17.802C203.712 17.802 204.828 17.442 204.828 16.686C204.828 15.912 203.712 15.588 201.66 15.588ZM216.652 9.072H219.388V10.998H216.652V9.072ZM222.034 2.934H224.32V19.602H222.034V2.934ZM218.632 3.186H220.882V18.846H218.632V3.186ZM213.736 4.104C215.95 4.104 217.372 6.39 217.372 10.152C217.372 13.932 215.95 16.218 213.736 16.218C211.54 16.218 210.136 13.932 210.136 10.152C210.136 6.39 211.54 4.104 213.736 4.104ZM213.736 6.354C212.836 6.354 212.314 7.614 212.314 10.152C212.314 12.708 212.836 13.95 213.736 13.95C214.672 13.95 215.194 12.708 215.194 10.152C215.194 7.614 214.672 6.354 213.736 6.354ZM88.7694 24.934H91.1634V33.25H88.7694V24.934ZM85.4214 28.246H89.6694V30.154H85.4214V28.246ZM81.8214 25.384C84.3414 25.384 86.2134 26.968 86.2134 29.218C86.2134 31.45 84.3414 33.052 81.8214 33.052C79.3014 33.052 77.4114 31.45 77.4114 29.218C77.4114 26.968 79.3014 25.384 81.8214 25.384ZM81.8214 27.328C80.5974 27.328 79.6974 28.03 79.6974 29.218C79.6974 30.424 80.5974 31.126 81.8214 31.126C83.0454 31.126 83.9274 30.424 83.9274 29.218C83.9274 28.03 83.0454 27.328 81.8214 27.328ZM80.1474 33.97H91.1634V38.506H82.5414V40.54H80.1654V36.778H88.7874V35.806H80.1474V33.97ZM80.1654 39.568H91.6314V41.422H80.1654V39.568ZM95.716 25.564H106.282V27.436H95.716V25.564ZM93.88 30.64H108.964V32.53H93.88V30.64ZM100.198 31.612H102.592V34.888H100.198V31.612ZM104.842 25.564H107.2V26.698C107.2 27.886 107.2 29.416 106.768 31.324L104.41 31.108C104.842 29.2 104.842 27.868 104.842 26.698V25.564ZM95.554 34.06H107.146V38.56H97.966V40.36H95.572V36.94H104.77V35.914H95.554V34.06ZM95.572 39.64H107.578V41.494H95.572V39.64ZM118.053 25.168C121.851 25.168 124.083 26.176 124.083 28.012C124.083 29.848 121.851 30.856 118.053 30.856C114.237 30.856 112.023 29.848 112.023 28.012C112.023 26.176 114.237 25.168 118.053 25.168ZM118.053 26.914C115.641 26.914 114.507 27.274 114.507 28.012C114.507 28.786 115.641 29.11 118.053 29.11C120.465 29.11 121.599 28.786 121.599 28.012C121.599 27.274 120.465 26.914 118.053 26.914ZM110.511 31.63H125.577V33.52H110.511V31.63ZM112.239 34.456H123.759V38.74H114.615V40.216H112.257V37.084H121.401V36.238H112.239V34.456ZM112.257 39.694H124.191V41.494H112.257V39.694ZM131.602 25.996H139.54V33.34H131.602V25.996ZM137.182 27.886H133.96V31.45H137.182V27.886ZM141.844 24.934H144.238V34.258H141.844V24.934ZM143.572 28.552H146.452V30.496H143.572V28.552ZM137.596 35.932H139.612V36.328C139.612 38.92 137.47 41.026 133.438 41.548L132.574 39.73C136.048 39.316 137.596 37.768 137.596 36.328V35.932ZM138.118 35.932H140.152V36.328C140.152 37.714 141.736 39.316 145.156 39.766L144.31 41.584C140.278 41.062 138.118 38.848 138.118 36.328V35.932ZM133.276 35.05H144.454V36.922H133.276V35.05ZM151.869 28.048H153.795V28.246C153.795 30.676 152.319 32.656 149.223 33.286L148.251 31.45C150.753 30.982 151.869 29.668 151.869 28.246V28.048ZM152.463 28.048H154.371V28.246C154.371 29.578 155.505 30.802 157.917 31.234L156.963 33.07C153.921 32.458 152.463 30.568 152.463 28.246V28.048ZM148.701 26.536H157.431V28.39H148.701V26.536ZM151.923 24.952H154.317V27.85H151.923V24.952ZM151.797 34.384H154.191V41.098H151.797V34.384ZM159.483 24.934H161.895V41.602H159.483V24.934ZM147.999 35.878L147.711 33.934C150.771 33.934 154.857 33.898 158.421 33.412L158.547 35.158C154.893 35.824 151.005 35.878 147.999 35.878ZM156.153 36.562H159.969V38.38H156.153V36.562ZM174.545 26.788H176.615V27.274C176.615 30.208 174.221 32.602 169.991 33.178L169.109 31.306C172.781 30.856 174.545 28.984 174.545 27.274V26.788ZM175.229 26.788H177.299V27.274C177.299 28.984 179.063 30.856 182.735 31.306L181.871 33.178C177.623 32.602 175.229 30.208 175.229 27.274V26.788ZM174.671 35.5H177.047V41.62H174.671V35.5ZM168.389 34.132H183.455V36.04H168.389V34.132ZM169.721 25.78H182.087V27.67H169.721V25.78ZM191.589 30.532H194.343V32.476H191.589V30.532ZM188.025 26.374H189.861V29.182C189.861 32.962 188.817 36.652 186.153 38.29L184.713 36.49C187.161 34.978 188.025 32.008 188.025 29.182V26.374ZM188.547 26.374H190.347V29.074C190.347 31.792 191.049 34.564 193.317 36.04L192.021 37.912C189.375 36.274 188.547 32.674 188.547 29.074V26.374ZM197.061 24.934H199.347V41.602H197.061V24.934ZM193.677 25.186H195.909V40.846H193.677V25.186ZM204.998 33.394H207.374V38.074H204.998V33.394ZM211.046 33.394H213.44V38.074H211.046V33.394ZM201.686 37.732H216.77V39.676H201.686V37.732ZM209.21 25.744C212.792 25.744 215.438 27.508 215.438 30.226C215.438 32.944 212.792 34.69 209.21 34.69C205.61 34.69 202.982 32.944 202.982 30.226C202.982 27.508 205.61 25.744 209.21 25.744ZM209.21 27.616C206.888 27.616 205.34 28.57 205.34 30.226C205.34 31.864 206.888 32.836 209.21 32.836C211.532 32.836 213.08 31.864 213.08 30.226C213.08 28.57 211.532 27.616 209.21 27.616Z" fill="#494A50"/>
<circle cx="146" cy="197" r="95" stroke="#71727A" stroke-width="8" stroke-dasharray="16 16"/>
<path d="M4 532C10.8421 395.129 63.5833 322 147 322" stroke="#71727A" stroke-width="8" stroke-dasharray="16 16"/>
<path d="M290 532C283.158 395.129 230.417 322 147 322" stroke="#71727A" stroke-width="8" stroke-dasharray="16 16"/>
</svg>
