<svg width="220" height="220" viewBox="0 0 220 220" fill="none" xmlns="http://www.w3.org/2000/svg">
<g clip-path="url(#clip0_1208_6461)">
<path d="M54.6861 141.224C54.6861 141.224 48.0641 68.4147 83.2751 52.9817C83.2751 52.9817 92.9551 38.9512 114.559 41.1952C136.163 43.4392 152.663 60.0822 158.191 75.1467C162.31 86.3667 166.38 110.127 165.737 137.66C165.66 140.855 163.944 143.787 161.21 145.448C155.248 149.072 141.438 153.714 109.785 153.714C57.8761 153.714 54.6806 141.229 54.6806 141.229L54.6861 141.224Z" fill="#333333"/>
<path d="M65.0159 61.1271L73.2604 53.7736C76.9124 50.5121 79.2279 46.0131 79.7504 41.1456L80.5204 33.9626L97.6859 26.6091C102.185 24.6841 104.297 19.4921 102.416 14.9766C100.815 11.1266 96.7894 8.92108 92.6754 9.59208C79.9044 11.6766 52.9929 19.0411 36.4434 44.8306L65.0159 61.1271Z" fill="#FFCBA7"/>
<path d="M157.003 61.4572L148.759 54.1037C145.107 50.8422 142.791 46.3432 142.269 41.4757L141.499 34.2927L124.333 26.9392C119.834 25.0142 117.722 19.8222 119.603 15.3067C121.204 11.4567 125.23 9.25116 129.344 9.92216C142.115 12.0067 169.026 19.3712 185.576 45.1607L157.003 61.4572Z" fill="#FFCBA7"/>
<path d="M188.958 47.7895C188.733 47.4265 188.507 47.0635 188.276 46.7005C186.753 44.2805 183.299 43.483 180.664 44.9295L159.027 55.2145C156.701 56.496 155.441 59.059 155.969 61.6C156.211 62.777 156.624 64.097 157.157 65.5435L157.999 67.672C159.594 71.544 161.832 76.131 164.159 81.213C164.219 81.356 164.28 81.499 164.34 81.642C166.606 87.648 168.757 94.9355 169.884 102.745C169.648 132.077 148.005 156.238 119.818 160.517L119.801 164.747C119.801 165.335 119.46 165.913 118.932 166.177C110.132 170.654 101.838 167.42 99.2148 166.155C98.6758 165.896 98.3623 165.363 98.3623 164.769L98.3788 159.89C72.1933 154.214 52.5033 131.158 51.9808 103.389C54.4503 81.9115 65.3843 63.8495 65.3843 63.8495C66.8803 61.611 66.1598 58.7125 63.7618 57.244L41.2118 43.34C38.6048 41.745 35.0298 42.46 33.4238 44.902C33.1873 45.265 32.9508 45.628 32.7143 45.991C6.97432 85.844 2.24432 132.495 27.1098 172.854C34.3808 184.657 41.2393 197.554 47.2673 208.246C48.2903 210.061 50.1988 211.139 52.2778 211.139H170.242C172.315 211.139 174.213 210.067 175.241 208.263C181.027 198.11 187.622 185.96 194.59 174.652C219.747 133.826 214.242 88.5445 188.958 47.7895Z" fill="#482EC4"/>
<path d="M126.158 88.4566C107.101 85.6241 94.7037 73.0016 90.7327 68.3816C90.1937 67.7546 89.1762 68.0296 89.0277 68.8436C88.1037 73.8926 84.8202 86.7461 74.3702 96.0631C74.3702 96.0631 72.6157 97.4051 70.6522 100.04C67.7647 103.912 66.6317 108.84 67.4512 113.603C71.0207 134.398 88.4062 150.183 109.323 150.183C128.985 150.183 145.524 136.235 150.408 117.293C152.839 103.224 144.314 91.1626 126.164 88.4621L126.158 88.4566Z" fill="#FFCBA7"/>
<path d="M99.2138 166.166C101.837 167.425 110.131 170.665 118.931 166.188C119.459 165.918 119.8 165.346 119.8 164.758L119.817 160.528L119.861 147.334H98.4218L98.3778 159.901L98.3613 164.78C98.3613 165.379 98.6748 165.907 99.2138 166.166Z" fill="#FFCBA7"/>
<path d="M96.4972 109.802C99.1126 109.802 101.233 107.258 101.233 104.12C101.233 100.983 99.1126 98.439 96.4972 98.439C93.8819 98.439 91.7617 100.983 91.7617 104.12C91.7617 107.258 93.8819 109.802 96.4972 109.802Z" fill="black"/>
<path d="M121.495 109.802C124.111 109.802 126.231 107.258 126.231 104.12C126.231 100.983 124.111 98.439 121.495 98.439C118.88 98.439 116.76 100.983 116.76 104.12C116.76 107.258 118.88 109.802 121.495 109.802Z" fill="black"/>
<path d="M115.104 128.458C116.188 128.458 116.958 129.498 116.666 130.543C115.753 133.859 112.717 136.296 109.109 136.296C105.501 136.296 102.465 133.859 101.552 130.543C101.266 129.498 102.036 128.458 103.114 128.458H115.104Z" fill="#5C2F17"/>
</g>
<defs>
<clipPath id="clip0_1208_6461">
<rect width="220" height="220" fill="white"/>
</clipPath>
</defs>
</svg>
